<svg width="139" height="178" viewBox="0 0 139 178" fill="none" xmlns="http://www.w3.org/2000/svg">
<g opacity="0.7">
<path fill-rule="evenodd" clip-rule="evenodd" d="M17.482 68.5461C16.246 69.1386 15.5222 70.2943 14.5889 71.2136C12.9476 72.8316 11.7754 74.8556 10.1317 76.4786C9.90888 76.6987 9.7672 77.0862 9.37419 76.9461C9.01918 76.8194 9.00928 76.424 8.96416 76.1177C8.65902 74.032 9.16997 72.1089 10.2489 70.3394C10.8651 69.329 11.475 68.3007 12.3263 67.4565C12.8214 66.9654 12.8218 66.6943 12.0674 66.4849C11.0523 66.2031 10.9949 65.9443 11.7872 65.1171C15.2467 61.5057 18.7679 57.9599 22.7763 54.9354C24.4002 53.7105 26.0826 52.5512 27.5482 51.1375C27.3946 50.9135 27.247 50.9887 27.137 51.0509C24.0792 52.7812 20.7238 53.9887 17.9447 56.2054C14.9685 58.5797 11.9396 60.9061 9.64609 64.0062C9.1118 64.7285 8.59451 64.9548 7.9122 64.1969C7.67315 63.9314 7.37632 63.7169 7.09888 63.4877C5.80588 62.4239 5.8035 62.4231 6.99359 61.1681C10.9961 56.9479 15.3575 53.1568 20.3534 50.1449C25.0137 47.3357 29.9743 45.1289 34.9421 42.9367C36.2838 42.3446 37.576 41.6409 38.8361 40.7278C38.4142 40.7785 37.988 40.8086 37.5704 40.883C34.1023 41.5012 30.5806 41.8396 27.1932 42.8773C22.9157 44.1877 18.8522 46.0079 14.8751 48.0354C14.5224 48.2155 14.1658 48.3873 13.8057 48.5511C13.4071 48.7324 13.1911 48.599 13.1614 48.1577C13.1467 47.9428 13.125 47.7267 13.0886 47.5146C12.7462 45.5207 12.7771 45.5785 14.583 44.5669C21.0452 40.9471 28.0152 38.7395 35.1336 36.8378C39.374 35.705 43.5914 34.5023 47.8946 33.628C49.0566 33.3921 50.225 33.1891 51.3893 32.9651C51.7269 32.9002 52.1219 32.9877 52.437 32.5187C51.4214 32.2741 50.4581 32.0319 49.4904 31.8106C43.7339 30.497 37.9061 29.6172 32.0347 29.037C27.5458 28.5938 23.0395 28.8676 18.5419 28.7814C16.9881 28.7513 15.4584 29.003 13.9118 28.9947C13.1416 28.9903 12.4225 28.8197 12.145 28.027C11.5795 26.4091 11.7188 25.684 13.5195 25.5954C19.2543 25.3128 25.018 25.2633 30.7457 25.7105C32.3787 25.838 34.0108 25.9824 35.6462 26.081C38.4898 26.2523 41.3133 26.4091 44.1423 26.7605C47.3168 27.1555 50.4668 27.657 53.6275 28.1481C53.5519 27.651 53.1695 27.5786 52.879 27.4531C47.3279 25.0476 41.958 22.1739 36.1769 20.3315C34.2867 19.7292 32.3482 19.2333 30.3768 18.9867C29.2338 18.8438 29.0039 18.4568 29.2374 17.2872C29.537 15.7853 29.9434 15.4512 31.1031 15.7196C34.7074 16.5539 38.176 17.4455 41.66 18.7132C44.0259 19.574 46.4034 20.4048 48.7194 21.3946C52.8315 23.1514 56.7695 25.2989 60.5575 27.6696C61.4377 28.2197 62.3504 28.7168 63.2393 29.2535C63.6513 29.5025 63.8539 29.4621 63.7759 28.9329C63.692 28.3618 63.5302 27.8168 63.3259 27.2723C61.723 22.9935 58.6894 19.7798 55.4172 16.7814C52.8197 14.4012 50.0686 12.1924 47.2005 10.1352C46.6895 9.76869 45.9261 9.43584 46.3013 8.52833C46.6725 7.62873 47.5135 7.14707 48.4709 7.37147C48.9518 7.48427 49.4536 7.67028 49.8502 7.95603C54.9426 11.6288 59.606 15.7813 63.7593 20.499C65.7034 22.7082 67.4388 25.0765 69.128 27.4816C69.58 28.1259 70.2041 28.0405 70.4 27.2453C70.5437 26.6624 70.3628 25.891 70.119 25.3555C68.1318 20.9917 65.9962 16.6322 63.0267 12.8403C62.2154 11.8046 61.3502 10.8116 60.4249 9.87555C58.1084 7.53255 55.784 5.17531 52.9942 3.34169C52.3079 2.8905 51.2754 2.36729 51.8999 1.11584C52.4761 -0.0390297 53.1256 -0.324779 54.2128 0.386825C56.4113 1.82547 58.4793 3.44142 60.4827 5.14642C64.7163 8.74877 67.7764 13.2527 70.5081 18.0178C71.3661 19.5151 72.2178 21.0154 73.0604 22.5214C73.7348 23.7265 74.0253 23.7708 75.0892 22.7921C75.9888 21.9645 76.8749 21.1207 77.7927 20.3137C80.387 18.0345 83.0383 15.8237 85.9299 13.9259C86.4155 13.6077 86.9245 12.7782 87.642 13.6952C88.783 15.1516 88.2301 16.2535 86.9102 17.3003C85.5468 18.3816 84.1513 19.4248 82.8341 20.5631C81.4362 21.771 80.1658 23.1471 78.7857 24.3696C78.8922 24.2754 79.3711 24.2766 79.55 24.2129C79.8551 24.1049 80.1452 23.9489 80.4258 23.7902C81.0175 23.4562 81.5664 23.0529 82.1459 22.6991C83.091 22.122 84.0329 21.5394 84.9757 20.9592C86.8655 19.7961 88.7458 18.581 90.7152 17.5552C92.5385 16.6053 95.5457 14.8821 96.2509 17.9035C96.4235 18.6416 95.9604 18.9135 95.4123 19.2016C93.3586 20.2809 91.1929 21.1179 89.2148 22.3425C87.3008 23.5278 85.5333 24.9301 83.7678 26.3216C82.7609 27.1155 81.7533 27.9091 80.7159 28.6626C80.2715 28.9856 79.8262 29.3073 79.381 29.6299C79.0034 29.9034 78.5119 30.235 78.2336 30.6003C78.887 30.877 79.8179 30.3692 80.4761 30.2406C82.7645 29.7941 85.0853 29.5519 87.3911 29.2151C90.0127 28.8324 92.6438 28.5031 95.2892 28.3409C96.7445 28.2514 98.2033 28.2154 99.6609 28.2482C105.42 28.3777 111.005 29.5662 116.545 31.0294C117.342 31.2399 118.149 31.4144 118.947 31.6195C119.862 31.8545 119.905 32.4854 119.619 33.2164C119.198 34.2898 118.127 34.7441 117.003 34.4394C110.126 32.5729 103.176 31.3203 96.0024 32.0528C95.8619 32.0671 95.723 32.1007 95.5508 32.2879C96.5331 32.4925 97.5083 32.7466 98.4993 32.8919C102.397 33.4638 106.188 34.3824 109.735 36.1606C111.455 37.0234 113.277 37.7188 114.894 38.741C117.006 40.076 119.128 41.407 121.108 42.9568C123.819 45.079 126.57 47.1434 129.057 49.539C129.728 50.1849 129.824 50.8747 129.478 51.576C129.132 52.2778 128.114 53.0788 127.284 52.9355C126.509 52.8018 126.122 51.7767 125.585 51.2867C124.917 50.6765 124.224 50.1212 123.482 49.6019C121.993 48.5614 120.356 47.7406 118.769 46.8651C118.3 46.6063 117.826 46.3558 117.357 46.0969C116.955 45.8757 116.471 45.6093 116.042 45.4942C116.239 45.806 116.247 46.1848 116.424 46.4998C116.762 47.101 117.37 47.6187 117.871 48.081C121.079 51.0437 124.745 53.4263 128.15 56.1449C129.098 56.9012 130.022 57.6864 130.9 58.5227C131.509 59.1029 131.588 59.4658 131.067 60.1185C129.593 61.9648 129.643 61.9493 127.84 60.407C123.743 56.902 119.257 54.0156 114.221 52.0359C113.969 51.937 113.728 51.7249 113.341 51.8535C113.862 52.7408 114.614 53.3966 115.293 54.0956C120.305 59.249 124.757 64.8151 128.094 71.2196C128.675 72.3345 129.274 73.4423 129.918 74.5215C130.383 75.3 130.373 75.6954 129.394 76.0963C128.353 76.5226 127.812 76.4466 127.08 75.4983C125.004 72.8062 123.101 69.9757 120.693 67.3109C121.453 69.7449 123.493 71.4523 124.747 73.6081C125.956 75.6859 126.884 77.9094 127.812 80.1218C129.115 83.2262 130.691 86.075 132.544 88.885C135.231 92.9599 137.285 97.2782 138.082 102.172C138.781 106.466 139.006 110.746 138.538 115.066C138.497 115.449 138.525 115.858 138.252 116.179C137.997 116.159 137.98 115.962 137.945 115.801C136.454 108.976 133.705 102.69 129.84 96.8821C129.665 96.6193 129.547 96.178 129.185 96.2797C128.79 96.3905 128.968 96.8381 129.003 97.1274C129.376 100.27 129.76 103.412 129.961 106.572C130.496 114.98 130.778 123.398 130.431 131.817C130.104 139.726 129.54 147.619 128.119 155.43C127.267 160.115 126.115 164.811 126.081 169.598C126.072 170.955 126.163 172.319 126.469 173.644C126.686 174.584 127.517 176.059 127.24 177.039C126.936 178.111 125.412 177.545 124.746 177.214C123.088 176.39 121.734 174.822 121.284 173.028C120.569 170.175 121.962 167.411 122.478 164.655C122.841 162.722 123.003 160.721 123 158.756C122.993 154.218 122.166 149.742 121.917 145.22C121.882 144.59 121.907 142.788 121.182 142.49C120.045 142.023 119.801 147.512 119.724 148.049C119.049 152.769 117.768 157.403 116.853 162.079C116.593 163.411 116.365 164.75 116.207 166.098C116.038 167.537 115.961 168.973 115.635 170.394C115.549 170.769 115.558 171.156 115.544 171.538C115.531 171.884 115.537 172.233 115.602 172.574C115.713 173.15 116.012 173.612 116.42 174.025C116.796 174.407 117.227 174.758 117.46 175.254C117.699 175.764 117.671 176.347 117.43 176.851C117.174 177.387 116.689 177.832 116.101 177.962C115.446 178.107 114.813 177.819 114.315 177.408C113.673 176.878 113.189 176.164 112.763 175.457C112.331 174.741 111.943 173.989 111.639 173.209C111.022 171.623 111.061 170.031 111.295 168.37C111.467 167.146 111.766 165.947 111.954 164.726C112.028 164.25 112.08 163.77 112.093 163.287C112.286 155.747 110.96 148.405 108.985 141.164C108.647 139.923 108.468 138.623 107.812 137.484C107.589 137.096 107.369 136.511 106.858 137.29C106.19 138.309 105.49 139.308 104.804 140.314C102.246 143.626 100.032 147.083 100.004 151.484C100.002 151.781 100.129 152.199 99.7135 152.314C99.41 152.397 99.1987 152.106 98.9996 151.903C98.3145 151.203 97.7489 150.421 97.3219 149.535C95.8579 146.498 94.7703 143.356 94.591 139.952C94.5772 139.682 94.5974 139.372 94.2709 139.189C94.1961 139.256 94.0753 139.311 94.052 139.394C93.7686 140.396 93.4932 141.401 93.2288 142.409C91.9524 147.266 91.0259 152.122 93.3012 156.963C93.4085 157.19 93.4785 157.487 93.2173 157.644C93.0024 157.772 92.8346 157.535 92.6577 157.421C87.8331 154.303 84.7184 149.893 82.9137 144.501C82.7075 143.885 82.66 143.094 82.3636 142.543C82.2329 142.898 82.0054 143.197 81.8494 143.539C81.6642 143.945 81.4833 144.353 81.3084 144.764C80.9676 145.566 80.6538 146.379 80.3289 147.188C79.679 148.807 78.9539 150.402 77.8794 151.789C75.8847 154.363 73.0834 155.227 70.1147 156.226C69.221 156.527 68.3313 156.838 67.4535 157.182C66.7296 157.466 65.4303 158.498 64.6138 158.113C64.2366 157.934 64.4242 157.141 64.4499 156.823C64.6767 154.012 65.6523 149.388 62.5621 147.679C61.4864 147.083 60.2702 147.483 59.2542 148.008C57.8634 148.727 56.6057 149.693 55.2711 150.508C54.1748 151.176 52.9819 151.749 52.0036 152.592C50.8028 153.626 49.8731 155.058 49.4481 156.587C49.3649 156.886 49.3321 157.361 49.0032 157.387C48.5679 157.423 48.5512 156.917 48.4281 156.602C45.7159 149.657 43.9246 142.537 44.3386 134.882C44.1522 135.127 44.0156 135.283 43.904 135.456C41.6074 139.037 39.6942 142.822 37.8447 146.647C36.3851 149.667 35.1796 152.777 34.1822 155.973C34.1624 155.758 34.1209 155.544 34.1252 155.329C34.2835 148.029 33.8842 140.73 33.9772 133.43C33.9839 132.92 34.0654 132.385 33.8058 131.754C32.795 132.896 32.2567 134.159 31.6275 135.351C29.0957 140.148 27.7283 145.416 26.7483 150.721C26.4531 152.319 26.1927 153.923 25.9631 155.532C25.5895 158.158 25.7447 160.738 26.0181 163.365C26.2865 165.946 26.723 168.518 26.9423 171.102C27.1524 173.583 26.1828 175.55 24.1307 176.98C23.6083 177.344 22.0873 178.398 21.46 177.714C20.6138 176.792 22.2385 174.385 22.5199 173.427C23.0292 171.694 23.0376 169.875 22.8072 168.094C22.4676 165.467 21.9393 162.863 21.4909 160.253C20.7797 156.112 20.1864 151.953 19.5341 147.803C19.3442 146.595 19.1491 145.388 18.9448 144.182C18.6619 142.513 18.4822 140.93 18.5119 139.236C18.5206 138.729 18.6441 136.457 17.64 136.667C16.9208 136.819 16.9165 138.382 16.8793 138.922C16.7819 140.34 16.9766 141.773 16.8013 143.185C16.5025 145.591 16.1823 147.993 15.935 150.404C15.7956 151.762 15.6745 153.12 15.5823 154.482C15.502 155.669 15.4391 156.856 15.3924 158.045C15.2989 160.42 15.1189 162.791 15.6421 165.13C16.0094 166.772 16.7079 168.348 16.8536 170.036C16.9972 171.707 16.5005 173.382 15.665 174.82C15.1703 175.671 11.5236 179.755 10.9331 177.044C10.7634 176.264 11.4591 175.736 11.8462 175.166C12.7656 173.809 12.7415 171.84 12.6837 170.267C12.6112 168.284 12.244 166.328 11.9147 164.376C11.1817 160.034 10.514 155.652 10.0759 151.27C9.51905 146.519 8.97722 141.773 8.70137 136.998C8.36456 131.174 8.39702 125.342 8.44451 119.511C8.48211 114.906 8.45995 110.296 8.83316 105.704C9.03422 103.236 9.48224 100.788 9.81073 98.3298C9.88514 97.7757 10.0213 97.2169 9.82735 96.436C9.8788 96.643 8.71127 97.8509 8.55177 98.0666C8.12789 98.6397 7.71747 99.2231 7.32486 99.8183C6.55587 100.983 5.84506 102.189 5.20034 103.427C3.92951 105.869 2.84943 108.419 2.07925 111.064C1.72305 112.288 1.49232 113.55 1.07874 114.757C0.735203 115.759 0.213966 115.986 0.0892966 114.768C-0.306083 110.911 0.689291 107.133 1.54931 103.408C2.19166 100.626 3.14112 97.881 4.09415 95.1917C5.37527 91.5747 7.39056 88.3377 9.2507 85.0009C9.8784 83.8753 10.4931 82.7422 11.0839 81.5968C11.6218 80.5539 12.1339 79.4984 12.6302 78.435C13.941 75.6269 15.4577 72.9372 16.8785 70.1929C17.1409 69.6863 17.5046 69.2189 17.558 68.6197C17.5766 68.5726 17.5952 68.5259 17.6138 68.4796C17.5691 68.5018 17.5256 68.524 17.482 68.5461ZM50.3892 66.5906C50.3397 77.1226 58.9586 85.965 69.3192 86.0438C80.4056 86.1281 88.1965 76.5016 88.4747 67.1819C88.8183 55.6676 80.4128 47.7525 69.5899 47.5253C58.6732 47.2961 50.1969 55.7234 50.3892 66.5906ZM28.054 50.7295L28.0497 50.7841L28.1142 50.7604L28.054 50.7295Z" fill="#F99B3E"/>
<path fill-rule="evenodd" clip-rule="evenodd" d="M50.3892 66.5904C50.1968 55.7232 58.6732 47.2959 69.5903 47.5251C80.4131 47.7522 88.8186 55.6674 88.4751 67.1817C88.1968 76.5014 80.4056 86.1282 69.3196 86.0435C58.9589 85.9648 50.3397 77.1224 50.3892 66.5904ZM68.9879 57.0656C63.954 56.7411 59.8601 61.5078 59.7137 66.6106C59.5629 71.8566 63.7672 76.218 68.9633 76.2991C74.0601 76.3783 78.325 72.3256 78.3951 67.3364C78.4794 61.3464 74.6218 57.1345 68.9879 57.0656Z" fill="#FDECC1"/>
<path fill-rule="evenodd" clip-rule="evenodd" d="M77.7749 152.146C77.7749 152.146 80.2742 147.306 81.285 144.77C81.5898 144.007 81.9539 143.269 82.356 142.374C82.5594 143.159 82.6936 143.844 82.9133 144.5C84.7184 149.893 87.8327 154.303 92.6573 157.42C92.8342 157.535 93.002 157.772 93.2169 157.643C93.4781 157.487 93.4076 157.19 93.3008 156.963C91.0255 152.122 91.9524 147.265 93.2284 142.408C93.4927 141.401 93.7682 140.396 94.0516 139.393C94.0749 139.311 94.1952 139.256 94.2704 139.188C94.5965 139.372 94.5764 139.682 94.5906 139.951C94.7699 143.356 95.8575 146.497 97.3215 149.535C97.7485 150.421 98.3141 151.203 98.9992 151.902C99.1982 152.106 99.4096 152.397 99.7131 152.313C100.129 152.199 100.002 151.78 100.004 151.483C100.032 147.083 102.245 143.625 104.804 140.314C104.632 141.633 104.547 142.956 104.536 144.286C104.458 154.199 104.685 164.115 104.329 174.025C103.176 175.423 103.023 175.406 101.679 174.306C100.262 173.146 98.8872 171.925 97.3155 170.964C94.1719 169.041 89.2144 169.261 86.8116 172.171C86.3517 172.728 86.1503 172.538 85.7973 172.055C84.1508 169.803 80.8477 169.181 78.4782 170.636C78.1972 169.907 78.2748 169.143 78.2787 168.391C78.3056 163.354 78.3531 158.317 78.3749 153.28C78.3769 152.832 77.7749 152.146 77.7749 152.146Z" fill="#AF4A4C"/>
<path fill-rule="evenodd" clip-rule="evenodd" d="M34.1822 155.973C35.1796 152.777 36.3847 149.666 37.8447 146.647C39.6942 142.822 41.6073 139.036 43.904 135.456C44.0152 135.282 44.1522 135.127 44.3386 134.882C43.9246 142.537 45.7159 149.657 48.4281 156.602C48.5516 156.917 48.5682 157.423 49.0032 157.387C49.3321 157.36 49.3649 156.885 49.4481 156.587C50.2143 153.839 52.2343 152.229 54.5583 150.874C56.5459 149.714 58.5161 148.524 60.4942 147.348C60.4851 148.895 60.4708 150.441 60.468 151.987C60.4542 158.391 60.4431 164.793 60.4316 171.197C58.0918 168.946 53.1161 169.467 51.5025 172.869C49.3052 170.491 49.2363 170.462 47.6493 170.039C44.1708 169.113 41.2135 170.22 38.5215 172.356C37.1873 173.414 36.078 174.826 34.2087 175.011C34.1751 173.47 34.1102 171.929 34.1133 170.387C34.1224 165.582 34.1577 160.778 34.1822 155.973Z" fill="#AF4A4C"/>
<path fill-rule="evenodd" clip-rule="evenodd" d="M28.054 50.7295L28.1142 50.7604L28.0497 50.7841L28.054 50.7295Z" fill="#97A8AB"/>
<path fill-rule="evenodd" clip-rule="evenodd" d="M17.4821 68.5461C17.5256 68.5239 17.5695 68.5017 17.6131 68.48C17.5945 68.5267 17.5759 68.573 17.5573 68.6201C17.558 68.6201 17.4821 68.5461 17.4821 68.5461Z" fill="#97A8AB"/>
<path fill-rule="evenodd" clip-rule="evenodd" d="M104.329 174.026C104.65 174.586 104.706 175.275 105.177 175.762C106.1 177.843 106.1 177.847 103.836 177.844C93.4932 177.831 83.1507 177.813 72.8083 177.801C70.6482 177.798 70.4475 177.563 70.818 175.413C73.4253 175.279 75.441 174.106 76.9818 172.01C77.3752 171.474 77.9736 171.089 78.4774 170.636C80.8469 169.182 84.1501 169.804 85.7965 172.056C86.1499 172.539 86.351 172.728 86.8109 172.171C89.2136 169.262 94.1711 169.041 97.3148 170.964C98.8868 171.926 100.261 173.147 101.679 174.307C103.024 175.407 103.176 175.424 104.329 174.026Z" fill="#F99B3E"/>
<path fill-rule="evenodd" clip-rule="evenodd" d="M33.3423 175.546C33.6313 175.367 33.9202 175.187 34.2087 175.009C36.0779 174.825 37.1869 173.413 38.5211 172.354C41.2131 170.219 44.17 169.112 47.6488 170.038C49.2363 170.461 49.3052 170.49 51.5021 172.868C53.1153 169.466 58.091 168.946 60.4312 171.196C61.8528 172.531 62.7667 174.452 64.9233 174.94C65.7956 175.138 66.6809 175.18 67.5512 175.352C67.6335 178.303 67.7756 177.669 65.2965 177.735C55.7959 177.992 46.2945 177.648 36.7935 177.75C35.7863 177.76 34.779 177.824 33.7718 177.827C33.3637 177.828 32.8421 178.021 32.5931 177.541C32.3343 177.042 32.6015 176.56 32.8599 176.124C32.9865 175.912 33.1793 175.738 33.3423 175.546Z" fill="#F99B3E"/>
<path fill-rule="evenodd" clip-rule="evenodd" d="M41.0302 129.445C37.9756 128.794 35.8004 126.959 34.3443 124.284C32.3037 120.534 31.9495 116.53 32.6908 112.361C33.7234 106.555 37.4005 101.728 41.7355 98.1018C45.356 95.0725 49.742 93.2357 54.2685 92.0294C59.9902 90.5045 65.1432 90.3672 71.0296 90.8373C74.2421 91.0938 78.4904 91.4559 81.6665 92.0381C84.5584 92.5681 87.5809 92.796 90.2841 93.9501C92.7719 95.0124 95.3805 96.6647 97.6043 98.2098C99.7491 99.6999 101.475 101.333 102.916 103.522C104.512 105.949 105.826 108.697 106.738 111.437C107.721 114.386 106.995 118.212 106.085 121.159C105.815 122.034 105.475 122.901 105.078 123.727C103.845 126.29 101.762 128.131 99.1194 129.278C98.781 129.425 98.4295 129.475 98.0646 129.455L87.0284 128.144C85.0472 127.922 83.1233 127.294 81.1092 127.305L73.0674 126.861C70.5804 126.859 68.0937 126.857 65.6063 126.855L57.5459 127.457C55.5726 127.418 53.6202 127.679 51.6631 127.872C45.4953 128.324 48.6287 129.646 41.0302 129.445Z" fill="#653539"/>
<path fill-rule="evenodd" clip-rule="evenodd" d="M48.584 119.788C53.2106 116.323 59.0792 115.109 64.5583 116.59C65.6993 116.898 66.8697 117.136 67.9307 117.692C68.395 117.936 68.8264 117.809 69.2795 117.655C73.2765 116.299 77.3434 115.923 81.4726 116.922C84.8133 117.73 87.108 119.474 89.4198 121.767C91.0523 123.399 92.1336 125.649 93.7733 127.274C93.4871 126.991 86.6094 131.257 85.8301 131.595C83.5959 132.562 81.0598 132.92 78.676 133.312C72.9527 134.253 67.6319 133.759 61.8928 133.38C55.7167 132.973 49.8264 131.469 44.0017 129.428C42.2002 128.796 42.1922 128.506 42.894 126.843C43.4089 125.624 44.1731 124.604 44.9888 123.563C46.0067 122.263 47.2507 120.787 48.584 119.788Z" fill="#F99B3E"/>
<path fill-rule="evenodd" clip-rule="evenodd" d="M73.0674 126.862C72.8252 126.547 74.2987 124.448 74.4673 124.073C75.1132 122.639 75.6344 120.602 77.2908 120.009C78.3154 119.643 79.0793 120.444 79.5182 121.282C79.7766 121.776 79.9694 122.313 80.1364 122.844C80.3754 123.604 80.5753 124.376 80.7384 125.155C80.8084 125.49 80.8705 125.825 80.926 126.162C80.9568 126.348 81.2042 127.166 81.11 127.306C80.9434 127.551 80.6865 127.562 80.434 127.544C78.1769 127.383 75.9202 127.217 73.6635 127.047C73.4545 127.031 73.2238 127.06 73.0674 126.862Z" fill="#FDECC1"/>
<path fill-rule="evenodd" clip-rule="evenodd" d="M57.5459 127.458C58.0165 125.196 58.4538 122.661 59.8105 120.736C60.9662 119.096 62.311 120.243 63.1358 121.544C64.0901 123.05 64.8115 124.795 65.4547 126.454C65.8659 127.515 63.798 127.15 63.3428 127.19C61.4174 127.357 59.4793 127.378 57.5459 127.458Z" fill="#FDECC1"/>
<path fill-rule="evenodd" clip-rule="evenodd" d="M85.9659 129.727C86.3902 127.622 88.7302 121.828 89.4937 119.824C89.9393 118.653 90.5148 117.051 91.691 116.413C93.9232 115.203 95.7457 119.161 96.3077 120.689C96.823 122.088 97.1535 123.558 97.4207 125.022C97.4891 125.398 98.2035 129.494 98.1699 129.566C98.1604 129.655 97.7096 129.662 97.7096 129.662C97.7096 129.662 97.3166 130.444 96.7538 130.466C96.0984 130.108 94.0304 130.839 93.3826 130.466C91.3582 129.301 88.0651 130.711 85.9659 129.727Z" fill="#FDECC1"/>
<path fill-rule="evenodd" clip-rule="evenodd" d="M41.0302 129.445C40.9352 126.76 41.407 124.117 42.2132 121.562C42.7225 119.948 43.4274 118.179 44.6812 116.989C47.4995 114.314 49.5037 119.05 50.1694 121.192C50.8462 123.369 50.9194 125.726 51.6627 127.872C51.4937 128.196 51.1783 128.27 50.8605 128.331C48.0536 128.866 45.24 129.358 42.3917 129.612C41.9381 129.653 41.458 129.704 41.0302 129.445Z" fill="#FDECC1"/>
<path fill-rule="evenodd" clip-rule="evenodd" d="M54.9172 92.0475C54.9255 94.943 54.8075 97.9869 53.8216 100.739C53.5596 101.471 53.1991 102.192 52.759 102.834C52.0656 103.845 51.014 104.593 49.74 104.342C48.4154 104.08 47.3369 103.011 46.5089 102.01C45.267 100.51 44.3753 98.7389 43.402 97.0612C44.1334 96.164 45.2563 95.75 46.2386 95.2007C47.4366 94.5314 48.6591 93.9207 49.9399 93.4232C50.7726 93.0999 51.5998 92.7572 52.4538 92.492C52.6244 92.439 54.9168 91.928 54.9172 92.0475Z" fill="#FDECC1"/>
<path fill-rule="evenodd" clip-rule="evenodd" d="M66.2209 90.5354C66.2249 90.5365 66.2292 90.5377 66.2328 90.5389C66.2997 90.5583 65.2042 93.2741 65.0589 93.5452C64.5226 94.5473 63.8514 95.4774 63.0852 96.3161C61.8357 97.6839 60.9203 97.6055 59.9206 96.056C59.0059 94.6387 58.3046 93.102 57.8598 91.4619C58.9169 90.8967 60.1473 90.964 61.307 90.886C62.1401 90.8298 62.9668 90.7095 63.7964 90.6185C64.5745 90.533 65.4499 90.3197 66.2209 90.5354Z" fill="#FDECC1"/>
<path fill-rule="evenodd" clip-rule="evenodd" d="M81.3668 91.8249C80.66 93.1052 80.0517 94.4544 79.2245 95.652C77.7174 97.8351 76.8122 97.8129 75.2861 95.7122C74.1609 94.1639 73.3856 92.4442 72.8553 90.6106C75.6134 90.7195 78.3403 91.1045 81.0589 91.5593C81.1729 91.5791 81.2647 91.7334 81.3668 91.8249Z" fill="#FDECC1"/>
<path fill-rule="evenodd" clip-rule="evenodd" d="M86.9579 103.333C85.6729 101.949 85.2712 99.6241 85.0713 97.8989C84.9114 96.52 84.8663 95.1301 84.8243 93.7433C84.8125 93.3507 84.8057 92.9576 84.7966 92.5654C85.9084 92.2029 86.8733 92.8365 87.869 93.0898C90.7827 93.8323 93.3109 95.398 95.7719 97.0713C94.7456 98.5816 93.7123 100.088 92.5985 101.535C91.8723 102.48 90.9719 103.726 89.8376 104.194C89.2321 104.444 88.3776 104.35 87.8089 104.02C87.4887 103.834 87.2069 103.601 86.9579 103.333Z" fill="#FDECC1"/>
<path fill-rule="evenodd" clip-rule="evenodd" d="M68.3624 85.8411C75.2185 85.8665 81.201 86.4815 87.0248 88.0381C94.1575 89.9441 100.552 93.2334 105.599 98.8218C109.926 103.612 112.447 109.25 112.491 115.635C112.543 123.135 109.952 129.544 102.87 133.316C100.654 134.496 98.2166 134.585 95.8087 134.324C90.199 133.715 84.6142 132.859 78.9973 132.334C73.7664 131.846 68.5097 131.957 63.2537 132.14C56.2576 132.383 49.4159 133.931 42.4538 134.41C38.1655 134.705 34.6566 133.066 31.8462 129.889C27.1891 124.623 25.9384 118.509 27.1927 111.685C28.6103 103.969 33.0794 98.413 39.2527 93.9708C45.4098 89.5409 52.4154 87.4618 59.8279 86.4922C62.9344 86.0865 66.0555 85.9108 68.3624 85.8411ZM81.9015 127.342C83.6144 127.293 85.3305 127.954 87.0284 128.145C89.9461 128.893 92.8894 129.492 95.9104 129.617C96.4752 129.595 97.0399 129.574 97.6071 129.554C97.7595 129.522 97.9122 129.488 98.0646 129.456C98.4291 129.476 98.7806 129.425 99.119 129.278C101.762 128.132 103.844 126.29 105.077 123.728C107.383 118.936 107.287 113.97 105.531 109.029C103.696 103.864 99.7071 99.9106 95.1937 96.968C93.833 96.0807 92.392 95.2879 90.9236 94.5929C87.7242 93.0791 84.0466 92.4874 80.5923 91.8193C78.0407 91.3258 75.452 91.0052 72.8541 90.9031C64.7771 90.5849 56.0803 91.0757 48.5606 94.3325C46.5651 95.1969 44.5898 96.3541 42.8757 97.6966C39.166 100.601 35.6448 104.09 33.8049 108.509C33.2947 109.735 32.9227 111.054 32.6904 112.361C31.9491 116.53 32.3029 120.533 34.3439 124.283C35.5882 126.57 37.5442 128.4 40.0565 129.187C41.6974 129.701 43.5109 129.335 45.1712 129.092C48.1134 128.663 51.0021 127.983 53.9629 127.667C60.0903 127.012 66.4631 126.508 72.6226 126.843" fill="#AF4A4C"/>
<path fill-rule="evenodd" clip-rule="evenodd" d="M41.6221 90.7344L41.6188 90.7319L41.6221 90.7344Z" fill="#F99B3E"/>
<path d="M69.2998 76.2296C74.596 76.2296 78.8894 71.9362 78.8894 66.6399C78.8894 61.3437 74.596 57.0503 69.2998 57.0503C64.0035 57.0503 59.7101 61.3437 59.7101 66.6399C59.7101 71.9362 64.0035 76.2296 69.2998 76.2296Z" fill="#AF4A4C"/>
<path d="M69.2337 71.5618C71.9873 71.5618 74.2196 69.3295 74.2196 66.5758C74.2196 63.8221 71.9873 61.5898 69.2337 61.5898C66.48 61.5898 64.2477 63.8221 64.2477 66.5758C64.2477 69.3295 66.48 71.5618 69.2337 71.5618Z" fill="#653539"/>
<path fill-rule="evenodd" clip-rule="evenodd" d="M69.9061 61.5789C70.1986 62.1631 70.256 62.8208 70.0581 63.4478C69.6504 64.738 68.3167 65.7124 66.9603 65.6843C65.0424 65.6451 63.9283 63.4644 64.2956 61.7309C64.4092 61.1934 64.7112 60.7482 65.1528 60.424C65.7877 59.959 66.5717 59.5343 67.3696 59.663C68.5882 59.8589 69.2931 60.4276 69.8752 61.5187C69.8851 61.5381 69.8958 61.5587 69.9061 61.5789Z" fill="#FDECC1"/>
</g>
</svg>
